<?xml version="1.0" encoding="UTF-8"?>
<svg version="1.1" viewBox="0 0 804 800" width="1280" height="1280" xmlns="http://www.w3.org/2000/svg">
<path transform="translate(0)" d="m0 0h804v800h-804z" fill="#FEFEFD"/>
<path transform="translate(0)" d="m0 0h804v800h-804zm375 5-35 4-34 7-31 9-26 10-28 13-23 13-14 9-17 12-14 11-14 12-3 2v2l-4 2-19 19-7 8-13 15-14 19-11 16-12 20-11 21-8 18-9 23-9 30-8 36-4 35-1 21v22l3 37 5 29 6 25 12 36 8 20 9 19 10 18 14 22 12 17 13 16 11 13 8 8 7 8 12 11 15 13 14 11 17 12 11 7 17 10 27 14 21 9 25 9 30 8 26 5 32 4 14 1h28l32-2 32-5 30-7 22-7 17-6 25-11 16-8 15-8 16-10 19-13 14-11 14-12 12-11 21-21 9-11 10-12 13-18 13-21 16-29 13-30 11-33 8-32 4-25 3-27v-52l-4-33-5-28-7-26-9-27-13-30-12-23-14-23-14-20-11-14-12-14-9-9-7-8-13-12-10-9-14-11-15-11-15-10-20-12-27-14-27-11-30-10-24-6-29-5-27-3z" fill="#FEFEFD"/>
<path transform="translate(375,5)" d="m0 0h55l34 4 31 6 31 9 27 10 20 9 25 13 19 12 19 13 13 10 13 11 24 22 9 10 11 12 11 14 13 18 15 24 13 24 11 24 11 30 8 29 5 25 4 30 1 10v52l-4 35-5 26-8 30-10 29-15 33-13 23-13 21-14 19-11 13-9 11-27 27-11 9-9 8-12 9-30 20-16 9-15 8-25 11-19 7-18 6-32 8-30 5-20 2-19 1h-28l-32-3-36-6-27-7-24-8-20-8-25-12-22-12-14-9-13-9-16-12-15-13-10-9-13-12-7-8-11-12-11-14-10-13-13-20-12-20-8-16-10-21-10-28-6-19-6-25-5-29-3-37v-22l2-32 4-29 7-31 9-30 11-28 15-31 12-20 8-12 14-19 8-10 12-14 14-15 12-12h2v-2l11-9 13-11 18-13 15-10 21-12 17-9 25-11 25-9 25-7 34-7zm27 42-26 1-26 3-27 5-27 7-25 9-25 11-24 13-17 11-14 10-16 13-13 11-24 24-9 11-11 14-7 10-10 15-13 23-12 26-10 27-7 25-5 24-3 19-2 31v21l2 29 4 26 5 23 9 29 11 28 13 26 14 23 10 14 10 13 9 10 7 8 27 27 11 9 17 13 15 10 21 12 22 11 28 11 25 8 27 6 26 4 18 2h41l30-3 28-5 24-6 27-9 29-13 24-13 20-13 16-12 10-8 10-9 8-7 18-18 7-8 9-11 14-19 12-19 13-24 10-22 11-31 7-28 5-28 2-23v-49l-3-27-6-31-7-25-11-30-14-29-10-18-13-19-12-16-13-15-15-16-16-15-11-9-16-12-18-12-17-10-25-13-25-10-25-8-26-6-25-4-18-2z" fill="#828585"/>
<path transform="translate(297,269)" d="m0 0h33l1 2 2 92v19l-1 7h-35l-1-20h-31v-4l10-14 7-8 2-1 11-1 2-1v-24h-2l-2 5-13 16-10 13-13 16-11 14-8 9h-69l-2-7-4-28v-10l16-12 14-10 3-1 3 9 8 44v2h2l2-4 12-14 11-14 12-14 11-14 11-13 9-11 10-12 7-8z" fill="#D7212F"/>
<path transform="translate(428,411)" d="m0 0h86l7 2 6 7 2 4v10l-10 25-11 24-5 5-5 3-9 2h-8l11 30 2 8h-36l-3-3-10-28-4-7-3-2 1-6 9-21 1-1 13-1 20 1 2-6 6-14h-41l-3 10-10 24-10 25-11 27-2 2h-33l2-9 11-28 15-36 12-30 7-16z" fill="#828585"/>
<path transform="translate(575,411)" d="m0 0h51l17 1 6 4 3 5 1 4v7l-3 10-3 6-1 1h-30l-1-8h-40l-2 5-3 7v4l54 1 6 3 4 5 2 6-1 11-8 20-6 12-8 9-8 5-8 2-9 1h-51l-11-1-7-4-5-8v-9l5-14 3-3h30v8h42l5-11 1-4-53-1-7-3-5-5-2-6v-8l6-16 7-16 6-9 7-6 9-4z" fill="#828585"/>
<path transform="translate(385,269)" d="m0 0h88l6 3 6 7 1 10-3 10-6 14-6 16-8 14-7 7-9 4-11 2h-40l-2-1 1-7 9-21 2-2 31-1 8-20 1-4-4 1h-32l-3 1-11 27-10 25-13 33-2 2h-33l2-9 6-16 12-29 26-65z" fill="#D7212F"/>
<path transform="translate(342,411)" d="m0 0h29l2 1 1 24 1 50v44l-1 1h-34l-1-19-32-1 1-4 10-14 5-6 6-3 10-1 1-24h-3l-2 4-13 17-13 16-9 12-14 17-5 6h-39l4-8 7-9 10-11 11-14 13-15 8-10 11-13 8-10 9-11 8-10 7-8z" fill="#828585"/>
<path transform="translate(214,411)" d="m0 0h71l3 1-2 8-9 21-2 2-60 1-5 10-16 40-2 6h60l-1 8-7 15-4 8-4 1h-52l-22-1-8-5-4-7v-10l8-21 14-34 9-21 6-10 9-8 8-3z" fill="#828585"/>
<path transform="translate(250,268)" d="m0 0 2 1-2 4-9 7-16 12-19 14-11 8-19 14-17 13-3 4-5 13-12 29-3 2h-32v-3l11-28 34-84 3-5h33l-1 8-5 12-3 6 7-4 17-13 13-9z" fill="#D8202E"/>
<path transform="translate(667,269)" d="m0 0h33l-1 6-11 27-16 39-17 42-4 6h-32l-1-4 15-36 11-28 13-32 5-13 4-6z" fill="#D8212E"/>
<path transform="translate(507,269)" d="m0 0h33l-1 6-8 20-9 22-12 30-7 18-5 12-5 10-2 2h-32l-1-3 10-24 12-30 6-14 6-16 13-31z" fill="#D8202E"/>
<path transform="translate(547,269)" d="m0 0h112l-1 6-8 20-3 5-54 1-58-1 2-9 8-20z" fill="#D8202E"/>
<path transform="translate(570,308)" d="m0 0h34l1 2-13 31-13 32-6 14-2 2h-32l-1-4 12-29 16-40z" fill="#D7212F"/>
</svg>
